<svg width="135" height="96" viewBox="0 0 135 96" fill="none" xmlns="http://www.w3.org/2000/svg">
<path d="M126.261 80.1718C124.54 80.8169 122.64 80.8155 120.92 80.1678C119.199 79.5201 117.778 78.271 116.923 76.656L99.9232 53.3591L97.4594 50.1021L77.7345 76.6853C76.9313 78.2325 75.5868 79.4368 73.9526 80.0731C72.3184 80.7094 70.5063 80.734 68.8551 80.1425L94.2713 46.352L70.629 15.8282C72.329 15.2211 74.1881 15.2131 75.8934 15.8054C77.5987 16.3978 79.0459 17.5543 79.9913 19.0803L97.6122 42.6653L115.332 19.178C116.141 17.6583 117.486 16.4864 119.11 15.885C120.735 15.2836 122.525 15.2947 124.142 15.9161L114.967 27.9821L102.54 44.013C102.195 44.3181 101.918 44.692 101.729 45.1102C101.54 45.5285 101.443 45.9816 101.443 46.4399C101.443 46.8982 101.54 47.3513 101.729 47.7695C101.918 48.1878 102.195 48.5617 102.54 48.8667L126.212 80.1767L126.261 80.1718ZM8.00991 45.932L10.0795 35.7998C15.7659 15.7647 38.945 7.42942 54.8905 19.8323C64.2281 27.1031 66.5589 37.3965 66.1006 48.9986H13.4992C12.6467 69.7172 27.7348 82.2275 47.0261 75.8357C50.1534 74.7201 52.9527 72.8533 55.1731 70.4024C57.3935 67.9515 58.9658 64.993 59.749 61.7921C60.769 58.54 62.4493 57.9833 65.5339 58.9209C65.0199 62.8878 63.6048 66.6875 61.3952 70.0342C59.1855 73.381 56.2387 76.1876 52.7766 78.243C47.0577 81.3429 40.4963 82.5715 34.0304 81.7532C27.5644 80.935 21.5251 78.1117 16.776 73.6871C12.0802 68.4495 9.24217 61.8336 8.69484 54.8484C8.69484 53.7009 8.30064 52.6267 8.03455 51.5963C8.01056 49.71 7.99907 47.8234 8.00006 45.9369L8.00991 45.932ZM13.5632 44.5355H61.1337C60.838 29.5153 51.2737 18.8606 38.5163 18.7629C24.3151 18.5676 14.1545 28.988 13.5288 44.4671L13.5632 44.5355Z" fill="white"/>
</svg>
