<svg width="256" height="256" viewBox="0 0 96 96" fill="none" xmlns="http://www.w3.org/2000/svg">
<path d="M24 25.4975C24 31.85 28.927 37 35 37H46V14H35C28.927 14 24 19.15 24 25.4975Z" fill="#F24E1E"/>
<path d="M46 14V37H57C63.0778 37 68 31.85 68 25.4975C68 19.15 63.0778 14 57 14H46Z" fill="#FF7262"/>
<path d="M24 48C24 54.0776 28.927 59 35 59H46V37H35C28.927 37 24 41.9177 24 48Z" fill="#A259FF"/>
<path d="M46 48C46 41.9224 50.927 37 57 37C63.0778 37 68 41.9177 68 48C68 54.0776 63.0778 59 57 59C50.9319 59 46 54.0823 46 48Z" fill="#1ABCFE"/>
<path d="M24 70.5025C24 64.15 28.927 59 35 59H46V70.5025C46 76.85 41.073 82 35 82C28.927 82 24 76.85 24 70.5025Z" fill="#0ACF83"/>
</svg>
