<svg width="512" height="512" viewBox="0 0 512 512" fill="none" xmlns="http://www.w3.org/2000/svg">
<g clip-path="url(#clip0_14_3)">
<path d="M25.0581 223.743C26.2737 223.738 26.2737 223.738 27.5139 223.732C30.2407 223.723 32.9674 223.728 35.6942 223.733C37.6645 223.729 39.6348 223.724 41.605 223.719C47.0283 223.707 52.4514 223.707 57.8747 223.709C63.7201 223.71 69.5654 223.699 75.4108 223.689C86.8663 223.673 98.3219 223.667 109.777 223.666C119.087 223.665 128.396 223.661 137.706 223.655C140.385 223.653 143.064 223.651 145.743 223.649C146.409 223.649 147.075 223.648 147.761 223.648C166.496 223.636 185.231 223.628 203.967 223.629C204.673 223.629 205.38 223.629 206.107 223.629C209.688 223.629 213.269 223.629 216.85 223.629C217.561 223.629 218.272 223.629 219.005 223.629C220.443 223.629 221.881 223.629 223.319 223.63C245.695 223.631 268.071 223.616 290.448 223.588C315.583 223.558 340.718 223.541 365.853 223.542C379.163 223.543 392.473 223.538 405.783 223.516C417.115 223.498 428.447 223.493 439.779 223.507C445.562 223.514 451.345 223.514 457.128 223.496C462.421 223.481 467.714 223.483 473.007 223.501C474.923 223.504 476.839 223.5 478.755 223.489C481.359 223.475 483.961 223.486 486.565 223.502C487.309 223.492 488.053 223.482 488.82 223.472C495.261 223.559 500.394 225.716 505.242 229.965C505.781 230.616 506.32 231.267 506.875 231.938C507.429 232.586 507.984 233.234 508.555 233.902C513.034 240.404 512.675 247.371 512 255C510.319 261.66 505.536 266.186 500 270C495.687 272.178 491.676 272.283 486.942 272.257C486.132 272.261 485.321 272.264 484.486 272.268C481.759 272.277 479.033 272.272 476.306 272.267C474.336 272.271 472.365 272.276 470.395 272.281C464.972 272.293 459.549 272.293 454.125 272.291C448.28 272.29 442.435 272.301 436.589 272.311C425.134 272.328 413.678 272.333 402.223 272.334C392.913 272.335 383.604 272.339 374.294 272.346C371.615 272.347 368.936 272.349 366.257 272.351C365.591 272.351 364.925 272.352 364.239 272.352C345.504 272.365 326.769 272.372 308.034 272.372C307.327 272.372 306.621 272.372 305.893 272.371C302.312 272.371 298.731 272.371 295.15 272.371C294.084 272.371 294.084 272.371 292.995 272.371C291.557 272.371 290.119 272.371 288.681 272.371C266.305 272.369 243.929 272.384 221.553 272.412C196.417 272.442 171.282 272.46 146.147 272.458C132.837 272.457 119.527 272.463 106.217 272.484C94.8849 272.502 83.5532 272.507 72.2213 272.493C66.4381 272.487 60.6551 272.486 54.8719 272.504C49.5787 272.519 44.2859 272.517 38.9927 272.499C37.0769 272.496 35.161 272.5 33.2451 272.511C30.6415 272.525 28.0391 272.514 25.4356 272.498C24.6911 272.508 23.9467 272.518 23.1797 272.528C16.7395 272.441 11.606 270.284 6.75787 266.035C6.21904 265.384 5.68021 264.733 5.12505 264.063C4.57076 263.414 4.01646 262.766 3.44537 262.098C-1.03407 255.596 -0.674583 248.629 5.40316e-05 241C1.68091 234.34 6.46384 229.815 12.0001 226C16.3132 223.822 20.3244 223.717 25.0581 223.743Z" fill="white"/>
<path d="M182.559 447.743C183.672 447.737 184.785 447.73 185.931 447.723C187.757 447.728 187.757 447.728 189.62 447.733C191.566 447.726 191.566 447.726 193.551 447.719C197.15 447.707 200.749 447.707 204.348 447.709C208.23 447.71 212.112 447.699 215.994 447.689C223.6 447.673 231.205 447.667 238.81 447.666C244.993 447.665 251.175 447.661 257.357 447.655C274.884 447.637 292.411 447.628 309.939 447.629C310.884 447.629 311.828 447.63 312.802 447.63C313.748 447.63 314.694 447.63 315.669 447.63C331.002 447.631 346.335 447.612 361.668 447.583C377.411 447.555 393.155 447.541 408.898 447.543C417.737 447.543 426.576 447.538 435.415 447.516C442.94 447.498 450.466 447.494 457.992 447.507C461.831 447.514 465.669 447.514 469.508 447.497C473.672 447.478 477.835 447.49 481.999 447.506C483.21 447.495 484.42 447.485 485.668 447.475C493.623 447.54 499.091 448.575 505.242 453.965C505.781 454.616 506.32 455.267 506.875 455.938C507.429 456.586 507.984 457.235 508.555 457.903C513.034 464.404 512.675 471.372 512 479C510.319 485.66 505.536 490.186 500 494C496.343 495.721 493.47 496.252 489.441 496.258C487.772 496.267 487.772 496.267 486.069 496.277C484.243 496.272 484.243 496.272 482.38 496.268C481.083 496.272 479.786 496.277 478.449 496.281C474.85 496.294 471.251 496.293 467.652 496.291C463.77 496.291 459.888 496.302 456.006 496.311C448.4 496.328 440.795 496.333 433.19 496.334C427.008 496.335 420.825 496.339 414.643 496.346C397.116 496.363 379.589 496.373 362.061 496.371C361.117 496.371 360.172 496.371 359.198 496.371C358.252 496.371 357.306 496.371 356.331 496.371C340.998 496.37 325.665 496.389 310.332 496.417C294.589 496.446 278.845 496.46 263.102 496.458C254.263 496.457 245.424 496.463 236.585 496.484C229.06 496.503 221.534 496.507 214.009 496.493C210.169 496.487 206.331 496.487 202.492 496.504C198.328 496.523 194.165 496.51 190.001 496.495C188.79 496.505 187.58 496.515 186.332 496.526C178.377 496.461 172.909 495.426 166.758 490.035C166.219 489.384 165.68 488.733 165.125 488.063C164.571 487.414 164.016 486.766 163.445 486.098C158.966 479.597 159.325 472.629 160 465C161.681 458.341 166.464 453.815 172 450C175.657 448.28 178.53 447.749 182.559 447.743Z" fill="white"/>
<path d="M22.5593 15.7425C23.672 15.7361 24.7848 15.7296 25.9312 15.723C27.7572 15.7276 27.7572 15.7276 29.62 15.7323C31.5658 15.7255 31.5658 15.7255 33.5509 15.7186C37.1499 15.7064 40.7488 15.7066 44.3478 15.709C48.23 15.7094 52.1121 15.6984 55.9943 15.6889C63.5997 15.6723 71.2051 15.6668 78.8105 15.6657C84.9926 15.6647 91.1747 15.6606 97.3568 15.6543C114.884 15.6366 132.411 15.6274 149.939 15.6289C150.884 15.629 151.828 15.6291 152.802 15.6292C153.748 15.6292 154.694 15.6293 155.669 15.6294C171.002 15.6302 186.335 15.6111 201.668 15.5829C217.411 15.5542 233.155 15.5403 248.898 15.5421C257.737 15.5427 266.576 15.5372 275.415 15.5157C282.94 15.4975 290.466 15.4932 297.992 15.5067C301.831 15.5133 305.669 15.5134 309.508 15.496C313.672 15.4774 317.835 15.4898 321.999 15.5053C323.21 15.495 324.42 15.4847 325.668 15.4741C333.623 15.5394 339.091 16.5741 345.242 21.9646C345.781 22.6156 346.32 23.2666 346.875 23.9373C347.429 24.5857 347.984 25.2341 348.555 25.9021C353.034 32.4033 352.675 39.3712 352 46.9998C350.319 53.6594 345.536 58.1852 340 61.9998C336.343 63.7202 333.47 64.2511 329.441 64.257C327.772 64.2667 327.772 64.2667 326.069 64.2766C324.243 64.2719 324.243 64.2719 322.38 64.2672C321.083 64.2717 319.786 64.2763 318.449 64.2809C314.85 64.2932 311.251 64.2929 307.652 64.2905C303.77 64.2901 299.888 64.3012 296.006 64.3106C288.4 64.3273 280.795 64.3328 273.19 64.3339C267.008 64.3348 260.825 64.3389 254.643 64.3453C237.116 64.3629 219.589 64.3721 202.061 64.3706C201.117 64.3705 200.172 64.3705 199.198 64.3704C198.252 64.3703 197.306 64.3702 196.331 64.3701C180.998 64.3693 165.665 64.3885 150.332 64.4167C134.589 64.4454 118.845 64.4592 103.102 64.4575C94.263 64.4568 85.4242 64.4623 76.5854 64.4838C69.0597 64.502 61.5342 64.5064 54.0085 64.4928C50.1695 64.4863 46.3308 64.4862 42.4918 64.5035C38.328 64.5221 34.1648 64.5097 30.001 64.4942C28.7903 64.5045 27.5797 64.5148 26.3324 64.5254C18.3771 64.4601 12.9093 63.4255 6.75787 58.0349C6.21904 57.384 5.68021 56.733 5.12505 56.0623C4.57076 55.4139 4.01646 54.7655 3.44537 54.0974C-1.03407 47.5962 -0.674583 40.6284 5.40316e-05 32.9998C1.68091 26.3402 6.46384 21.8143 12.0001 17.9998C15.6574 16.2793 18.5303 15.7484 22.5593 15.7425Z" fill="white"/>
</g>
<defs>
<clipPath id="clip0_14_3">
<rect width="512" height="512" fill="white"/>
</clipPath>
</defs>
</svg>
