<svg width="256" height="256" viewBox="0 0 96 96" fill="none" xmlns="http://www.w3.org/2000/svg">
<path d="M78 14L72.5339 75.193L47.9633 82L23.4605 75.2024L18 14H78Z" fill="#E44D26"/>
<path d="M49 78L68.4291 72.3846L73 19H49V78Z" fill="#F16529"/>
<path d="M38.2809 34.5934H49V27H30L30.1813 29.0371L32.0437 49.9626H49V42.3692H38.9734L38.2809 34.5934ZM39.9886 53.7594H32.3823L33.4437 65.6822L48.9651 70L49 69.9905V62.0901L48.9668 62.0989L40.5281 59.8155L39.9886 53.7594Z" fill="#EBEBEB"/>
<path d="M49.0002 49.9645H58.34L57.4594 59.8134L49 62.0995V70L64.5493 65.6854L64.6632 64.4024L66.4459 44.4097L66.6309 42.3705H49.0002V49.9645ZM49.0002 34.5755V34.594H67.321L67.473 32.8872L67.8188 29.0373L68 27H49.0002V34.5755Z" fill="white"/>
</svg>
