<svg width="256" height="256" viewBox="0 0 96 96" fill="none" xmlns="http://www.w3.org/2000/svg">
<path d="M14 14H82V82H14V14Z" fill="#F7DF1E"/>
<path d="M31.8829 70.8279L37.0868 67.6786C38.0907 69.4586 39.0039 70.9646 41.1945 70.9646C43.2943 70.9646 44.6181 70.1432 44.6181 66.9483V45.2207H51.0084V67.0387C51.0084 73.6573 47.1287 76.6699 41.4684 76.6699C36.3565 76.6699 33.3891 74.0224 31.8828 70.8273" fill="#111827"/>
<path d="M54.4766 70.1433L59.6797 67.1306C61.0495 69.3675 62.8297 71.0106 65.979 71.0106C68.6268 71.0106 70.3153 69.6868 70.3153 67.8609C70.3153 65.6699 68.5808 64.8939 65.6594 63.6162L64.0623 62.9311C59.4518 60.9687 56.3934 58.5038 56.3934 53.3001C56.3934 48.5073 60.045 44.8555 65.751 44.8555C69.8135 44.8555 72.7348 46.2706 74.8343 49.968L69.8588 53.163C68.7633 51.2004 67.5768 50.4246 65.7511 50.4246C63.8796 50.4246 62.6927 51.6113 62.6927 53.163C62.6927 55.0802 63.8796 55.8564 66.618 57.0432L68.2155 57.7279C73.6474 60.0559 76.7058 62.4293 76.7058 67.7696C76.7058 73.5213 72.1869 76.6706 66.1161 76.6706C60.1822 76.6706 56.3477 73.8407 54.4766 70.1433Z" fill="#111827"/>
</svg>
