<svg width="32" height="32" viewBox="0 0 32 32" fill="none" xmlns="http://www.w3.org/2000/svg">
<g clip-path="url(#clip0_2195_1787)">
<path fill-rule="evenodd" clip-rule="evenodd" d="M0 16C0 7.163 7.163 0 16 0C24.837 0 32 7.163 32 16C32 24.836 24.837 32 16 32C7.163 32 0 24.836 0 16ZM24.294 16.8051V22.9421L20.737 22.9431V17.2161C20.737 15.7771 20.222 14.7961 18.934 14.7961C17.951 14.7961 17.366 15.4581 17.109 16.0971C17.015 16.3251 16.992 16.6451 16.992 16.9641V22.9421H13.434C13.434 22.9421 13.481 13.2431 13.434 12.2381H16.992V13.7551C17.463 13.0261 18.309 11.9871 20.198 11.9871C22.539 11.9871 24.294 13.5171 24.294 16.8051ZM11.698 8.92712C11.698 9.95412 10.925 10.7771 9.68498 10.7771H9.66298C8.46798 10.7771 7.69598 9.95512 7.69598 8.92712C7.69598 7.87712 8.49098 7.07812 9.70798 7.07812C10.925 7.07812 11.675 7.87712 11.698 8.92712ZM11.464 12.2381V22.9421H7.90698V12.2381H11.464Z" fill="white"/>
</g>
<defs>
<clipPath id="clip0_2195_1787">
<rect width="32" height="32" fill="white"/>
</clipPath>
</defs>
</svg>
