<svg width="239" height="96" viewBox="0 0 239 96" fill="none" xmlns="http://www.w3.org/2000/svg">
<g clip-path="url(#clip0_2221_1968)">
<path fill-rule="evenodd" clip-rule="evenodd" d="M222.475 42.1223C222.26 42.1654 222.045 42.6393 222.045 42.8975C222.001 44.62 221.958 49.1852 221.958 52.2857C221.958 52.3719 222.087 52.5439 222.217 52.5439C222.863 52.5871 224.413 52.6302 225.748 52.6302C227.6 52.6302 228.676 52.3719 229.279 52.1136C230.83 51.3384 231.562 49.6586 231.562 47.8068C231.562 43.6296 228.633 42.0361 224.284 42.0361C223.982 41.9934 223.121 41.9934 222.475 42.1223ZM233.586 61.3724C233.586 57.1091 230.442 54.7403 224.757 54.7403C224.499 54.7403 222.69 54.6972 222.26 54.7834C222.13 54.8265 221.958 54.9127 221.958 55.0421C221.958 58.0995 221.915 62.966 222.045 64.8605C222.13 65.6789 222.734 66.8417 223.466 67.1862C224.241 67.617 226.007 67.7028 227.212 67.7028C230.614 67.7028 233.586 65.8082 233.586 61.3724ZM213.69 39.7539C214.12 39.7539 215.412 39.8828 218.729 39.8828C221.872 39.8828 224.37 39.797 227.428 39.797C231.174 39.797 236.342 41.1319 236.342 46.7301C236.342 49.4866 234.404 51.6829 231.863 52.7595C231.734 52.8026 231.734 52.8884 231.863 52.9316C235.481 53.8361 238.668 56.0756 238.668 60.2958C238.668 64.4302 236.084 67.0569 232.337 68.6936C230.054 69.684 227.212 70.0285 224.327 70.0285C222.13 70.0285 216.231 69.7702 212.958 69.8564C212.613 69.7271 213.259 68.1766 213.561 67.9183C214.336 67.8752 214.939 67.8321 215.757 67.5738C216.92 67.2725 217.049 66.928 217.221 65.1623C217.307 63.655 217.307 58.3146 217.307 54.5251C217.307 49.3141 217.351 45.7829 217.307 44.0604C217.264 42.7255 216.79 42.2947 215.843 42.0361C215.111 41.9071 213.905 41.7347 212.915 41.6057C212.699 41.3902 213.431 39.926 213.69 39.7539ZM188.841 66.5403C189.875 67.3583 191.899 67.7028 193.708 67.7028C196.033 67.7028 198.359 67.2725 200.598 65.2482C202.881 63.1812 204.474 59.9944 204.474 54.9127C204.474 50.0462 202.622 46.0843 198.833 43.759C196.679 42.4237 193.923 41.864 190.736 41.864C189.789 41.864 188.884 41.9071 188.325 42.1654C188.195 42.2516 187.894 42.6393 187.894 42.8544C187.808 43.7159 187.808 50.3476 187.808 54.2237C187.808 58.2288 187.808 63.827 187.894 64.4729C187.894 65.1192 188.195 66.1096 188.841 66.5403ZM179.065 39.7539C179.884 39.7539 183.027 39.8828 184.535 39.8828C187.248 39.8828 189.186 39.7539 194.31 39.7539C198.617 39.7539 202.234 40.9167 204.818 43.1127C207.962 45.826 209.599 49.5728 209.599 54.1375C209.599 60.6403 206.627 64.3871 203.656 66.5403C200.684 68.7367 196.808 70.0285 191.296 70.0285C188.368 70.0285 183.329 69.9422 179.152 69.8991H179.109C178.893 69.5119 179.453 68.0046 179.798 67.9615C180.917 67.8321 181.219 67.789 181.779 67.5738C182.683 67.2293 182.855 66.7555 182.985 65.1623C183.114 62.1908 183.07 58.6164 183.07 54.5682C183.07 51.6829 183.114 46.0411 183.027 44.2324C182.898 42.7255 182.253 42.3379 180.96 42.0792C180.314 41.9502 179.453 41.7778 178.247 41.6489C178.075 41.3471 178.85 40.0122 179.065 39.7539Z" fill="white"/>
<path fill-rule="evenodd" clip-rule="evenodd" d="M126.956 68.219C125.88 68.0897 125.104 67.9177 124.157 67.4869C124.028 67.4007 123.812 66.9704 123.812 66.7979C123.726 65.2906 123.726 60.9841 123.726 58.0988C123.726 55.7731 123.339 53.7492 122.348 52.3281C121.185 50.6914 119.506 49.7441 117.352 49.7441C115.457 49.7441 112.917 51.0363 110.807 52.845C110.763 52.8878 110.419 53.1895 110.462 52.7157C110.462 52.2419 110.548 51.2946 110.591 50.6487C110.634 50.0455 110.29 49.7441 110.29 49.7441C108.912 50.4331 105.036 51.3377 103.615 51.4666C102.581 51.6822 102.323 52.6726 103.4 53.0171H103.443C104.605 53.3616 105.38 53.7492 105.983 54.1368C106.414 54.4813 106.371 54.9552 106.371 55.3428C106.414 58.5726 106.414 63.525 106.285 66.2383C106.242 67.3149 105.94 67.7021 105.165 67.8745L105.251 67.8314C104.648 67.9608 104.174 68.0897 103.442 68.1759C103.184 68.4342 103.184 69.8126 103.442 70.114C103.916 70.114 106.414 69.9847 108.481 69.9847C111.323 69.9847 112.788 70.114 113.52 70.114C113.821 69.7695 113.907 68.4773 113.735 68.1759C112.917 68.1328 112.314 68.047 111.754 67.8745C110.979 67.7021 110.763 67.3149 110.72 66.4103C110.634 64.1277 110.634 59.3047 110.634 56.0318C110.634 55.1272 110.893 54.6965 111.151 54.4382C112.141 53.5772 113.735 52.974 115.156 52.974C116.534 52.974 117.439 53.4047 118.128 53.9648C119.075 54.7396 119.376 55.8593 119.506 56.6777C119.721 58.5295 119.635 62.1901 119.635 65.3768C119.635 67.0993 119.506 67.53 118.86 67.7452C118.558 67.8745 117.783 68.047 116.879 68.1328C116.577 68.4342 116.663 69.7695 116.879 70.0709C118.128 70.0709 119.592 69.9415 121.745 69.9415C124.415 69.9415 126.138 70.0709 126.827 70.0709C127.042 69.8126 127.129 68.5635 126.956 68.219ZM138.885 51.7684C136.603 51.7684 135.181 53.5341 135.181 56.2901C135.181 59.0892 136.43 62.319 139.962 62.319C140.565 62.319 141.684 62.0607 142.201 61.458C143.019 60.6827 143.579 59.1323 143.579 57.496C143.579 53.9217 141.813 51.7684 138.885 51.7684ZM138.583 70.803C137.722 70.803 137.119 71.0613 136.732 71.2768C134.923 72.4393 134.105 73.559 134.105 74.8943C134.105 76.143 134.578 77.1333 135.612 77.9948C136.861 79.0714 138.583 79.5884 140.78 79.5884C145.172 79.5884 147.11 77.2196 147.11 74.8943C147.11 73.2576 146.292 72.181 144.613 71.5782C143.407 71.0613 141.21 70.803 138.583 70.803ZM138.885 81.9999C136.258 81.9999 134.363 81.4398 132.727 80.1911C131.133 78.9852 130.444 77.1765 130.444 75.9278C130.444 75.5833 130.531 74.6356 131.306 73.7746C131.779 73.2576 132.813 72.2672 135.268 70.5878C135.354 70.5447 135.397 70.5016 135.397 70.4154C135.397 70.3292 135.31 70.2429 135.225 70.2002C133.2 69.425 132.597 68.1759 132.425 67.4869V67.4007C132.382 67.1424 132.296 66.8842 132.684 66.6255C132.985 66.4103 133.416 66.152 133.889 65.8507C134.621 65.4199 135.397 64.9461 135.87 64.5585C135.957 64.4722 135.957 64.3864 135.957 64.3002C135.957 64.214 135.87 64.1277 135.784 64.085C132.77 63.0942 131.263 60.8548 131.263 57.496C131.263 55.2997 132.253 53.3185 134.019 52.0698C135.225 51.1221 138.239 49.9597 140.22 49.9597H140.349C142.373 50.0024 143.493 50.4331 145.086 50.9932C145.948 51.2946 146.766 51.4235 147.886 51.4235C149.565 51.4235 150.297 50.907 150.9 50.3042C150.943 50.39 151.029 50.6056 151.072 51.1653C151.116 51.7253 150.943 52.5433 150.512 53.1464C150.168 53.6199 149.393 53.9648 148.618 53.9648H148.402C147.627 53.8786 147.282 53.7923 147.282 53.7923L147.11 53.8786C147.067 53.9648 147.11 54.0506 147.154 54.1799L147.197 54.2662C147.282 54.6538 147.455 55.8162 147.455 56.118C147.455 59.6492 146.034 61.1993 144.526 62.3621C143.062 63.4387 141.383 64.1277 139.488 64.3002C139.445 64.3002 139.273 64.3002 138.885 64.3433C138.67 64.3433 138.368 64.3864 138.325 64.3864H138.282C137.937 64.4722 137.076 64.903 137.076 65.6351C137.076 66.281 137.464 67.0562 139.315 67.1855C139.703 67.2287 140.091 67.2287 140.521 67.2718C142.976 67.4438 146.034 67.6594 147.455 68.1328C149.436 68.8649 150.685 70.6305 150.685 72.7411C150.685 75.9278 148.402 78.8994 144.613 80.7508C142.761 81.5691 140.909 81.9999 138.885 81.9999ZM163.432 51.9836C162.528 51.9836 161.709 52.1988 161.106 52.6295C159.427 53.663 158.566 55.7304 158.566 58.7447C158.566 64.3864 161.408 68.3484 165.456 68.3484C166.662 68.3484 167.609 68.0039 168.428 67.3149C169.676 66.281 170.323 64.214 170.323 61.3286C170.323 55.7304 167.523 51.9836 163.432 51.9836ZM164.207 70.4154C156.886 70.4154 154.259 65.0323 154.259 59.9937C154.259 56.4625 155.68 53.7492 158.522 51.8111C160.547 50.5625 162.958 49.8735 165.112 49.8735C170.71 49.8735 174.629 53.8786 174.629 59.6492C174.629 63.5681 173.079 66.6686 170.107 68.5635C168.686 69.5108 166.232 70.4154 164.207 70.4154ZM87.4655 51.9836C86.5609 51.9836 85.743 52.1988 85.1398 52.6295C83.4604 53.663 82.599 55.7304 82.599 58.7447C82.599 64.3864 85.4412 68.3484 89.4894 68.3484C90.6953 68.3484 91.6426 68.0039 92.461 67.3149C93.7096 66.281 94.3559 64.214 94.3559 61.3286C94.3559 55.7304 91.5995 51.9836 87.4655 51.9836ZM88.2407 70.4154C80.9196 70.4154 78.2925 65.0323 78.2925 59.9937C78.2925 56.4625 79.7136 53.7492 82.5559 51.8111C84.5802 50.5625 86.9917 49.8735 89.1449 49.8735C94.7435 49.8735 98.6624 53.8786 98.6624 59.6492C98.6624 63.5681 97.1119 66.6686 94.1404 68.5635C92.7624 69.5108 90.3077 70.4154 88.2407 70.4154ZM39.0174 69.9847C38.9312 69.8557 38.845 69.4681 38.8881 68.9943C38.8881 68.6498 38.9743 68.4342 39.0174 68.3484C39.9216 68.219 40.3955 68.0897 40.912 67.9608C41.7735 67.7452 42.118 67.2718 42.1611 66.1952C42.2904 63.6112 42.2904 58.7016 42.2473 55.2997V55.2134C42.2473 54.8258 42.2473 54.352 41.7735 54.0075C41.0845 53.5772 40.2661 53.1895 39.1895 52.8878C38.8019 52.7588 38.5436 52.5433 38.5867 52.285C38.5867 52.0267 38.845 51.7253 39.4051 51.6391C40.8262 51.5098 44.5295 50.6056 45.9937 49.9597C46.0799 50.0455 46.2093 50.3042 46.2093 50.6487L46.1661 51.1221C46.123 51.596 46.0799 52.156 46.0799 52.7157C46.0799 52.8878 46.2524 53.0171 46.4244 53.0171C46.5106 53.0171 46.5969 52.974 46.6831 52.9309C49.4391 50.7776 51.9368 50.0024 53.2286 50.0024C55.3391 50.0024 56.9754 50.9932 58.2245 53.0602C58.3103 53.1895 58.3965 53.2323 58.5258 53.2323C58.6121 53.2323 58.741 53.1895 58.7841 53.1033C61.325 51.1653 63.8658 50.0024 65.5452 50.0024C69.5503 50.0024 71.9191 52.974 71.9191 58.0126C71.9191 59.4337 71.9191 61.2855 71.876 62.9653C71.876 64.4722 71.8328 65.8507 71.8328 66.841C71.8328 67.0562 72.1342 67.7452 72.6081 67.8745C73.2108 68.1759 74.0292 68.3053 75.1058 68.4773H75.1489C75.2351 68.7787 75.0627 69.8984 74.8906 70.114C74.632 70.114 74.2443 70.114 73.814 70.0709C72.9957 70.0278 71.8328 69.9847 70.5411 69.9847C67.8709 69.9847 66.4929 70.0278 65.1576 70.114C65.0718 69.7695 65.0287 68.736 65.1576 68.4773C65.9328 68.3484 66.3204 68.219 66.7943 68.0897C67.6557 67.8314 67.8709 67.4438 67.914 66.3241C67.914 65.5062 68.086 58.5295 67.8278 56.8497C67.5695 55.1272 66.2773 53.1033 63.4351 53.1033C62.3585 53.1033 60.6791 53.5341 59.0424 54.7827C58.9566 54.8689 58.8703 55.0841 58.8703 55.2134V55.2566C59.0424 56.1607 59.0424 57.1946 59.0424 58.7878V61.5869C59.0424 63.525 58.9993 65.3337 59.0424 66.7117C59.0424 67.6594 59.6025 67.8745 60.0763 68.047C60.3346 68.0897 60.5066 68.1328 60.7222 68.1759C61.1098 68.2622 61.4974 68.3484 62.1002 68.4773C62.1864 68.6498 62.1864 69.2094 62.0571 69.6833C62.014 69.9415 61.9277 70.0709 61.885 70.114C60.4208 70.0709 58.9135 70.0278 56.7171 70.0278C56.0712 70.0278 54.9515 70.0709 54.0038 70.0709C53.2286 70.0709 52.4965 70.114 52.0662 70.114C52.023 70.0278 51.9368 69.7264 51.9368 69.2525C51.9368 68.8649 52.023 68.5635 52.1093 68.4773C52.3244 68.4342 52.4965 68.3915 52.712 68.3915C53.2286 68.3053 53.6593 68.219 54.0901 68.1328C54.8222 67.9177 55.0804 67.53 55.1236 66.5828C55.2529 64.4295 55.3818 58.2712 55.0804 56.7208C54.5639 54.2231 53.1428 52.974 50.8602 52.974C49.5253 52.974 47.8455 53.6199 46.4675 54.6538C46.2524 54.8258 46.0799 55.2566 46.0799 55.6442V58.185C46.0799 61.2855 46.0799 65.1617 46.123 66.841C46.1661 67.3576 46.3382 67.9608 47.329 68.1759C47.5441 68.219 47.8886 68.3053 48.3194 68.3484L49.0946 68.4773C49.1808 68.736 49.1377 69.7695 48.9653 70.114C48.5345 70.114 48.018 70.0709 47.4148 70.0709C46.5106 70.0278 45.3478 69.9847 44.056 69.9847C42.5487 69.9847 41.4721 70.0278 40.6106 70.0709C40.0078 69.9847 39.534 69.9847 39.0174 69.9847Z" fill="white"/>
<path fill-rule="evenodd" clip-rule="evenodd" d="M16.3562 80.3186L14.5906 79.7154C14.5906 79.7154 14.8061 70.7149 11.5763 70.069C9.42305 67.5712 11.9208 -35.8708 19.6722 69.7245C19.6722 69.7245 17.0025 71.0594 16.5286 73.3419C16.0117 75.5814 16.3562 80.3186 16.3562 80.3186Z" fill="white"/>
<path fill-rule="evenodd" clip-rule="evenodd" d="M16.3562 80.3186L14.5906 79.7154C14.5906 79.7154 14.8061 70.7149 11.5763 70.069C9.42305 67.5712 11.9208 -35.8708 19.6722 69.7245C19.6722 69.7245 17.0025 71.0594 16.5286 73.3419C16.0117 75.5814 16.3562 80.3186 16.3562 80.3186Z" fill="#A6A385"/>
<path fill-rule="evenodd" clip-rule="evenodd" d="M17.3031 71.6166C17.3031 71.6166 32.7634 61.4532 29.1459 40.3081C25.6578 24.9341 17.4321 19.8955 16.5279 17.9575C15.5375 16.5795 14.5898 14.168 14.5898 14.168L15.2361 56.9312C15.2361 56.9743 13.9008 70.023 17.3031 71.6166Z" fill="white"/>
<path fill-rule="evenodd" clip-rule="evenodd" d="M17.3031 71.6166C17.3031 71.6166 32.7634 61.4532 29.1459 40.3081C25.6578 24.9341 17.4321 19.8955 16.5279 17.9575C15.5375 16.5795 14.5898 14.168 14.5898 14.168L15.2361 56.9312C15.2361 56.9743 13.9008 70.023 17.3031 71.6166Z" fill="#499D4A"/>
<path fill-rule="evenodd" clip-rule="evenodd" d="M13.6884 72.1807C13.6884 72.1807 -0.824566 62.2756 0.0368871 44.8346C0.854824 27.3932 11.1044 18.8234 13.0852 17.273C14.3774 15.895 14.4205 15.378 14.5067 14C15.4109 15.9381 15.2388 42.9828 15.3678 46.1695C15.7554 58.443 14.6788 69.8554 13.6884 72.1807Z" fill="white"/>
<path fill-rule="evenodd" clip-rule="evenodd" d="M13.6884 72.1807C13.6884 72.1807 -0.824566 62.2756 0.0368871 44.8346C0.854824 27.3932 11.1044 18.8234 13.0852 17.273C14.3774 15.895 14.4205 15.378 14.5067 14C15.4109 15.9381 15.2388 42.9828 15.3678 46.1695C15.7554 58.443 14.6788 69.8554 13.6884 72.1807Z" fill="#58AA50"/>
</g>
<defs>
<clipPath id="clip0_2221_1968">
<rect width="238.668" height="95.9995" fill="white"/>
</clipPath>
</defs>
</svg>
