<svg width="112" height="96" viewBox="0 0 112 96" fill="none" xmlns="http://www.w3.org/2000/svg">
<g clip-path="url(#clip0_2221_1884)">
<path d="M54.9248 82.0006C54.5482 82.0006 54.1968 81.9002 53.8705 81.7245L50.532 79.7415C50.03 79.4654 50.281 79.365 50.4316 79.3148C51.1093 79.0888 51.2349 79.0386 51.9377 78.637C52.013 78.5868 52.1134 78.6119 52.1887 78.6621L54.749 80.1933C54.8495 80.2435 54.975 80.2435 55.0503 80.1933L65.0657 74.3949C65.1661 74.3447 65.2163 74.2443 65.2163 74.1188V62.547C65.2163 62.4215 65.1661 62.3211 65.0657 62.2709L55.0503 56.4976C54.9499 56.4474 54.8244 56.4474 54.749 56.4976L44.7336 62.2709C44.6332 62.3211 44.583 62.4466 44.583 62.547V74.1188C44.583 74.2192 44.6332 74.3447 44.7336 74.3949L47.4696 75.9763C48.9506 76.7293 49.8794 75.8508 49.8794 74.9722V63.5511C49.8794 63.4005 50.0049 63.2499 50.1806 63.2499H51.4608C51.6114 63.2499 51.762 63.3754 51.762 63.5511V74.9722C51.762 76.9552 50.6826 78.1099 48.8 78.1099C48.2227 78.1099 47.7709 78.1099 46.4907 77.4824L43.855 75.9763C43.2024 75.5998 42.8008 74.8969 42.8008 74.1439V62.5721C42.8008 61.8191 43.2024 61.1162 43.855 60.7397L53.8705 54.9413C54.498 54.5899 55.3515 54.5899 55.979 54.9413L65.9945 60.7397C66.6471 61.1162 67.0487 61.8191 67.0487 62.5721V74.1439C67.0487 74.8969 66.6471 75.5998 65.9945 75.9763L55.979 81.7747C55.6527 81.9253 55.2762 82.0006 54.9248 82.0006ZM58.0122 74.0435C53.6195 74.0435 52.7158 72.0354 52.7158 70.3285C52.7158 70.1779 52.8413 70.0272 53.0171 70.0272H54.3223C54.4729 70.0272 54.5984 70.1277 54.5984 70.2783C54.7993 71.6086 55.3766 72.2613 58.0373 72.2613C60.1458 72.2613 61.0495 71.7843 61.0495 70.6548C61.0495 70.0021 60.7985 69.5252 57.5102 69.1989C54.7741 68.9228 53.0673 68.3203 53.0673 66.1365C53.0673 64.1033 54.7741 62.8984 57.6357 62.8984C60.8487 62.8984 62.4301 64.0029 62.6309 66.4126C62.6309 66.4879 62.6058 66.5632 62.5556 66.6386C62.5054 66.6888 62.4301 66.739 62.3548 66.739H61.0495C60.924 66.739 60.7985 66.6386 60.7734 66.513C60.4722 65.1325 59.694 64.6806 57.6357 64.6806C55.3264 64.6806 55.0503 65.4839 55.0503 66.0863C55.0503 66.8143 55.3766 67.0402 58.4892 67.4418C61.5766 67.8434 63.0325 68.4208 63.0325 70.5795C63.0074 72.7884 61.2001 74.0435 58.0122 74.0435Z" fill="#539E43"/>
<path d="M23.8463 36.7428C23.8463 36.291 23.5953 35.8643 23.1937 35.6383L12.5507 29.5136C12.375 29.4132 12.1742 29.363 11.9734 29.3379H11.873C11.6722 29.3379 11.4713 29.4132 11.2956 29.5136L0.652636 35.6383C0.251014 35.8643 0 36.291 0 36.7428L0.0251014 53.2093C0.0251014 53.4352 0.150608 53.6611 0.35142 53.7616C0.552231 53.8871 0.803245 53.8871 0.978955 53.7616L7.30451 50.147C7.70613 49.921 7.95714 49.4943 7.95714 49.0425V41.3364C7.95714 40.8845 8.20816 40.4578 8.60978 40.2319L11.2956 38.6756C11.4964 38.5501 11.7224 38.4999 11.9483 38.4999C12.1742 38.4999 12.4001 38.5501 12.5758 38.6756L15.2617 40.2319C15.6633 40.4578 15.9143 40.8845 15.9143 41.3364V49.0425C15.9143 49.4943 16.1653 49.921 16.5669 50.147L22.8925 53.7616C23.0933 53.8871 23.3443 53.8871 23.5451 53.7616C23.7459 53.6611 23.8714 53.4352 23.8714 53.2093L23.8463 36.7428Z" fill="#333333"/>
<path d="M75.001 14.0753C74.8001 13.9749 74.5491 13.9749 74.3734 14.0753C74.1726 14.2008 74.0471 14.4016 74.0471 14.6275V30.9434C74.0471 31.0941 73.9718 31.2447 73.8212 31.3451C73.6706 31.4204 73.52 31.4204 73.3694 31.3451L70.7086 29.8139C70.307 29.588 69.8301 29.588 69.4284 29.8139L58.7854 35.9637C58.3838 36.1896 58.1328 36.6164 58.1328 37.0682V49.3428C58.1328 49.7946 58.3838 50.2213 58.7854 50.4472L69.4284 56.5971C69.8301 56.823 70.307 56.823 70.7086 56.5971L81.3516 50.4472C81.7532 50.2213 82.0042 49.7946 82.0042 49.3428V18.7442C82.0042 18.2672 81.7532 17.8405 81.3516 17.6146L75.001 14.0753ZM74.022 45.3014C74.022 45.427 73.9718 45.5274 73.8714 45.5776L70.2317 47.6861C70.1313 47.7363 70.0058 47.7363 69.9054 47.6861L66.2657 45.5776C66.1653 45.5274 66.1151 45.4019 66.1151 45.3014V41.0844C66.1151 40.9589 66.1653 40.8585 66.2657 40.8083L69.9054 38.6998C70.0058 38.6496 70.1313 38.6496 70.2317 38.6998L73.8714 40.8083C73.9718 40.8585 74.022 40.984 74.022 41.0844V45.3014Z" fill="#333333"/>
<path d="M110.421 40.9863C110.822 40.7603 111.048 40.3336 111.048 39.8818V36.8947C111.048 36.4429 110.797 36.0162 110.421 35.7903L99.8531 29.6655C99.4515 29.4396 98.9746 29.4396 98.573 29.6655L87.93 35.8154C87.5284 36.0413 87.2773 36.468 87.2773 36.9198V49.1944C87.2773 49.6462 87.5284 50.073 87.93 50.2989L98.4977 56.3232C98.8993 56.5491 99.3762 56.5491 99.7527 56.3232L106.154 52.7588C106.354 52.6584 106.48 52.4325 106.48 52.2066C106.48 51.9807 106.354 51.7548 106.154 51.6544L95.4604 45.5045C95.2596 45.379 95.1341 45.1782 95.1341 44.9523V41.1118C95.1341 40.8859 95.2596 40.6599 95.4604 40.5595L98.7989 38.6518C98.9997 38.5263 99.2507 38.5263 99.4515 38.6518L102.79 40.5595C102.991 40.685 103.116 40.8859 103.116 41.1118V44.1239C103.116 44.3498 103.242 44.5758 103.443 44.6762C103.643 44.8017 103.894 44.8017 104.095 44.6762L110.421 40.9863Z" fill="#333333"/>
<path d="M99.0533 40.4087C99.1286 40.3585 99.229 40.3585 99.3043 40.4087L101.337 41.5885C101.413 41.6387 101.463 41.714 101.463 41.8144V44.174C101.463 44.2744 101.413 44.3497 101.337 44.3999L99.3043 45.5796C99.229 45.6298 99.1286 45.6298 99.0533 45.5796L97.02 44.3999C96.9447 44.3497 96.8945 44.2744 96.8945 44.174V41.8144C96.8945 41.714 96.9447 41.6387 97.02 41.5885L99.0533 40.4087Z" fill="#539E43"/>
<path d="M41.6434 29.7124C41.2417 29.4865 40.7648 29.4865 40.3632 29.7124L29.7955 35.812C29.3939 36.038 29.168 36.4647 29.168 36.9165V49.1409C29.168 49.5927 29.419 50.0194 29.7955 50.2453L40.3632 56.345C40.7648 56.5709 41.2417 56.5709 41.6434 56.345L52.2111 50.2453C52.6127 50.0194 52.8386 49.5927 52.8386 49.1409V36.9165C52.8386 36.4647 52.5876 36.038 52.2111 35.812L41.6434 29.7124Z" fill="url(#paint0_linear_2221_1884)"/>
<mask id="mask0_2221_1884" style="mask-type:luminance" maskUnits="userSpaceOnUse" x="29" y="29" width="24" height="28">
<path d="M41.6473 29.7105C41.2456 29.4845 40.7687 29.4845 40.3671 29.7105L29.7994 35.8101C29.3978 36.036 29.1719 36.4627 29.1719 36.9146V49.1389C29.1719 49.5908 29.4229 50.0175 29.7994 50.2434L40.3671 56.343C40.7687 56.5689 41.2456 56.5689 41.6473 56.343L52.215 50.2434C52.6166 50.0175 52.8425 49.5908 52.8425 49.1389V36.9146C52.8425 36.4627 52.5915 36.036 52.215 35.8101L41.6473 29.7105Z" fill="white"/>
</mask>
<g mask="url(#mask0_2221_1884)">
<path d="M52.2407 35.8072L41.6228 29.7075C41.5224 29.6573 41.3969 29.6071 41.2965 29.582L29.3984 49.9644C29.4988 50.0899 29.6244 50.1903 29.7499 50.2656L40.3678 56.3652C40.669 56.5409 41.0204 56.5911 41.3467 56.4907L52.5168 36.0582C52.4415 35.9578 52.3411 35.8825 52.2407 35.8072Z" fill="url(#paint1_linear_2221_1884)"/>
</g>
<mask id="mask1_2221_1884" style="mask-type:luminance" maskUnits="userSpaceOnUse" x="29" y="29" width="24" height="28">
<path d="M41.6473 29.7105C41.2456 29.4845 40.7687 29.4845 40.3671 29.7105L29.7994 35.8101C29.3978 36.036 29.1719 36.4627 29.1719 36.9146V49.1389C29.1719 49.5908 29.4229 50.0175 29.7994 50.2434L40.3671 56.343C40.7687 56.5689 41.2456 56.5689 41.6473 56.343L52.215 50.2434C52.6166 50.0175 52.8425 49.5908 52.8425 49.1389V36.9146C52.8425 36.4627 52.5915 36.036 52.215 35.8101L41.6473 29.7105Z" fill="white"/>
</mask>
<g mask="url(#mask1_2221_1884)">
<path fill-rule="evenodd" clip-rule="evenodd" d="M52.2665 50.2435C52.5678 50.0678 52.7937 49.7666 52.8941 49.4403L41.247 29.56C40.9458 29.5097 40.6195 29.5348 40.3434 29.7106L29.8008 35.7851L41.1717 56.5189C41.3223 56.4938 41.498 56.4435 41.6486 56.3682L52.2665 50.2435Z" fill="url(#paint2_linear_2221_1884)"/>
<path fill-rule="evenodd" clip-rule="evenodd" d="M52.265 50.2424L41.6722 56.342C41.5216 56.4174 41.371 56.4676 41.1953 56.4927L41.3961 56.8692L53.1436 50.0667V49.9161L52.8424 49.4141C52.7922 49.7655 52.5662 50.0667 52.265 50.2424Z" fill="url(#paint3_linear_2221_1884)"/>
<path fill-rule="evenodd" clip-rule="evenodd" d="M52.265 50.2424L41.6722 56.342C41.5216 56.4174 41.371 56.4676 41.1953 56.4927L41.3961 56.8692L53.1436 50.0667V49.9161L52.8424 49.4141C52.7922 49.7655 52.5662 50.0667 52.265 50.2424Z" fill="url(#paint4_linear_2221_1884)"/>
</g>
</g>
<defs>
<linearGradient id="paint0_linear_2221_1884" x1="1643.23" y1="501.188" x2="484.867" y2="2321.25" gradientUnits="userSpaceOnUse">
<stop stop-color="#41873F"/>
<stop offset="0.3288" stop-color="#418B3D"/>
<stop offset="0.6352" stop-color="#419637"/>
<stop offset="0.9319" stop-color="#3FA92D"/>
<stop offset="1" stop-color="#3FAE2A"/>
</linearGradient>
<linearGradient id="paint1_linear_2221_1884" x1="1029.88" y1="1516.93" x2="3930.82" y2="-59.1478" gradientUnits="userSpaceOnUse">
<stop offset="0.1376" stop-color="#41873F"/>
<stop offset="0.4032" stop-color="#54A044"/>
<stop offset="0.7136" stop-color="#66B848"/>
<stop offset="0.9081" stop-color="#6CC04A"/>
</linearGradient>
<linearGradient id="paint2_linear_2221_1884" x1="-71.5511" y1="1378.55" x2="2373.75" y2="1378.55" gradientUnits="userSpaceOnUse">
<stop offset="0.0919165" stop-color="#6CC04A"/>
<stop offset="0.2864" stop-color="#66B848"/>
<stop offset="0.5968" stop-color="#54A044"/>
<stop offset="0.8624" stop-color="#41873F"/>
</linearGradient>
<linearGradient id="paint3_linear_2221_1884" x1="-1199.76" y1="424.223" x2="1245.54" y2="424.223" gradientUnits="userSpaceOnUse">
<stop offset="0.0919165" stop-color="#6CC04A"/>
<stop offset="0.2864" stop-color="#66B848"/>
<stop offset="0.5968" stop-color="#54A044"/>
<stop offset="0.8624" stop-color="#41873F"/>
</linearGradient>
<linearGradient id="paint4_linear_2221_1884" x1="1601.79" y1="-1524.13" x2="982.305" y2="1721.99" gradientUnits="userSpaceOnUse">
<stop stop-color="#41873F"/>
<stop offset="0.3288" stop-color="#418B3D"/>
<stop offset="0.6352" stop-color="#419637"/>
<stop offset="0.9319" stop-color="#3FA92D"/>
<stop offset="1" stop-color="#3FAE2A"/>
</linearGradient>
<clipPath id="clip0_2221_1884">
<rect width="111.049" height="96.001" fill="white"/>
</clipPath>
</defs>
</svg>
