<svg width="512" height="512" viewBox="0 0 512 512" fill="none" xmlns="http://www.w3.org/2000/svg">
<path d="M243.938 6.50388C244.895 6.50243 245.853 6.50097 246.84 6.49947C248.86 6.50113 250.881 6.51266 252.901 6.53342C255.99 6.56238 259.076 6.55403 262.164 6.54099C264.13 6.54723 266.096 6.55562 268.063 6.56638C269.444 6.56198 269.444 6.56198 270.853 6.55748C279.434 6.6834 279.434 6.6834 283 9.99997C284.264 12.9074 284.264 12.9074 285.184 16.4258C285.557 17.7109 285.933 18.9954 286.311 20.2793C286.881 22.2884 287.434 24.2972 287.946 26.322C290.147 35.0748 290.147 35.0748 296.258 41.3257C300.848 43.6218 304.958 45.4687 310.115 44.2849C312.857 43.0635 315.534 41.8012 318.188 40.3984C319.607 39.6636 319.607 39.6636 321.055 38.914C323.022 37.8863 324.985 36.8524 326.945 35.8125C328.365 35.0816 328.365 35.0816 329.813 34.3359C330.665 33.8878 331.517 33.4397 332.395 32.978C335.498 31.8132 337.709 31.6407 341 32C342.899 33.0984 342.899 33.0984 344.598 34.7304C345.275 35.3703 345.952 36.0102 346.649 36.6694C347.425 37.4385 348.201 38.2076 349 39C349.957 39.9321 350.914 40.8639 351.871 41.7954C354.534 44.4016 357.173 47.0319 359.803 49.6721C361.455 51.3301 363.113 52.9826 364.772 54.6347C365.826 55.6898 366.88 56.7451 367.934 57.8008C368.428 58.2934 368.923 58.7861 369.433 59.2938C373.893 63.7846 373.893 63.7846 374.243 67.7439C373.96 71.5329 372.914 73.7595 371.121 77.0976C370.53 78.2288 369.939 79.3599 369.33 80.5254C368.384 82.3003 367.432 84.0726 366.479 85.844C365.556 87.5682 364.651 89.3016 363.746 91.0351C362.921 92.5725 362.921 92.5725 362.08 94.1408C360.559 98.167 361.379 100.498 362.973 104.352C363.702 105.872 364.431 107.393 365.16 108.914C366 111 366 111 366 114C366.574 114.135 367.147 114.271 367.738 114.41C374.266 116.064 380.603 118.169 386.938 120.437C387.766 120.726 388.595 121.014 389.449 121.311C390.238 121.599 391.027 121.887 391.84 122.184C392.545 122.437 393.25 122.69 393.976 122.951C396.778 124.403 398.16 125.371 400 128C400.59 131.437 400.536 134.833 400.496 138.312C400.498 139.318 400.499 140.324 400.501 141.361C400.499 143.486 400.487 145.61 400.467 147.735C400.438 150.988 400.446 154.239 400.459 157.492C400.453 159.557 400.444 161.622 400.434 163.687C400.437 164.66 400.44 165.633 400.443 166.636C400.43 167.544 400.417 168.451 400.404 169.387C400.399 170.183 400.393 170.979 400.388 171.8C399.898 174.578 398.903 175.941 397 178C394.029 179.372 394.029 179.372 390.434 180.578C389.799 180.794 389.164 181.011 388.51 181.234C386.49 181.918 384.464 182.584 382.438 183.25C381.071 183.712 379.704 184.176 378.338 184.641C368.371 188 368.371 188 366 188C365.807 188.652 365.613 189.305 365.414 189.977C365.154 190.851 364.893 191.725 364.625 192.625C364.37 193.483 364.115 194.342 363.852 195.227C363 198 363 198 361.765 200.783C360.754 205.034 361.759 206.497 363.902 210.246C364.218 210.82 364.534 211.394 364.86 211.986C365.867 213.814 366.899 215.627 367.938 217.437C369.302 219.821 370.64 222.216 371.965 224.621C372.872 226.206 372.872 226.206 373.797 227.822C375.337 231.89 375.286 233.837 374 238C372.078 240.775 369.796 243.093 367.402 245.465C366.735 246.143 366.067 246.821 365.379 247.52C363.967 248.945 362.547 250.362 361.119 251.773C358.944 253.931 356.809 256.124 354.674 258.322C353.294 259.705 351.912 261.086 350.527 262.465C349.894 263.121 349.26 263.777 348.607 264.453C345.528 267.439 343.299 269.404 338.901 269.599C334.881 268.982 332.505 268.055 329.059 265.945C315.625 257.379 315.625 257.379 300.5 256.437C291.07 261.749 288.933 273.826 286.051 283.598C285.748 284.706 285.446 285.815 285.134 286.957C283.89 290.296 282.451 292.427 280 295C277.29 295.903 275.671 296.135 272.883 296.161C271.647 296.176 271.647 296.176 270.385 296.19C269.054 296.197 269.054 296.197 267.695 296.203C266.779 296.209 265.863 296.214 264.919 296.22C262.981 296.23 261.043 296.236 259.104 296.24C256.143 296.25 253.183 296.281 250.223 296.312C248.339 296.319 246.455 296.324 244.57 296.328C243.687 296.34 242.803 296.353 241.893 296.366C237.171 296.348 233.692 296.287 230 293C228.638 290.46 228.638 290.46 227.613 287.449C227.042 285.812 227.042 285.812 226.459 284.143C226.081 283.002 225.702 281.862 225.313 280.687C224.923 279.559 224.533 278.43 224.131 277.268C222.701 273.115 221.28 268.973 220.066 264.751C219.195 261.703 219.195 261.703 215.953 260.031C214.729 259.498 213.493 258.988 212.25 258.5C211.642 258.224 211.033 257.948 210.406 257.664C207.463 256.444 205.382 255.932 202.231 256.492C196.435 259.197 190.781 262.171 185.143 265.187C184.2 265.675 183.257 266.162 182.285 266.664C181.015 267.336 181.015 267.336 179.719 268.022C176.098 269.325 173.833 269.585 170 269C167.168 267.17 164.916 264.874 162.57 262.465C161.895 261.793 161.219 261.122 160.523 260.43C159.101 259.008 157.687 257.578 156.282 256.14C154.134 253.946 151.953 251.79 149.766 249.635C148.386 248.247 147.008 246.857 145.633 245.465C144.982 244.823 144.331 244.181 143.66 243.519C140.739 240.49 139.155 238.509 137.912 234.421C138.014 230.445 138.885 228.285 140.781 224.805C141.376 223.677 141.97 222.549 142.582 221.387C143.22 220.215 143.859 219.045 144.5 217.875C145.757 215.568 146.992 213.253 148.219 210.93C149.053 209.402 149.053 209.402 149.904 207.843C151.453 203.826 150.621 201.501 149.027 197.648C148.298 196.128 147.569 194.607 146.84 193.086C146 191 146 191 146 188C145.405 187.823 144.81 187.647 144.197 187.465C137.8 185.556 131.418 183.606 125.063 181.562C124.131 181.276 123.2 180.989 122.24 180.693C121.348 180.404 120.455 180.115 119.535 179.816C118.735 179.563 117.934 179.31 117.11 179.049C114.493 177.748 113.55 176.466 112 174C111.612 171.837 111.612 171.837 111.596 169.478C111.583 168.591 111.571 167.703 111.558 166.788C111.561 165.837 111.563 164.886 111.567 163.906C111.561 162.923 111.556 161.939 111.551 160.925C111.544 158.848 111.546 156.77 111.554 154.692C111.563 151.511 111.534 148.333 111.502 145.152C111.5 143.133 111.501 141.113 111.504 139.094C111.493 138.143 111.482 137.191 111.47 136.212C111.539 129.697 111.539 129.697 113.644 126.517C116.429 124.724 119.04 123.669 122.192 122.641C123.383 122.247 124.575 121.854 125.803 121.449C127.044 121.053 128.284 120.658 129.563 120.25C130.807 119.839 132.052 119.428 133.334 119.004C142.55 116 142.55 116 146 116C146.083 115.361 146.165 114.721 146.25 114.062C147.121 110.507 148.598 107.532 150.258 104.281C151.462 100.579 150.37 97.8093 148.785 94.3403C148.288 93.4056 147.79 92.4708 147.277 91.5078C146.739 90.4727 146.201 89.4376 145.647 88.3711C144.51 86.2115 143.366 84.0552 142.217 81.9023C136.601 71.0474 136.601 71.0474 138 66C140.675 62.3343 143.79 59.1975 147 56C147.874 55.0976 148.747 54.1953 149.647 53.2656C152.346 50.4862 155.074 47.7401 157.813 45C158.75 44.0508 159.686 43.1016 160.623 42.1523C161.517 41.2564 162.411 40.3605 163.332 39.4375C164.134 38.6318 164.935 37.8261 165.761 36.9961C167.883 35.1046 169.302 33.855 172 33C176.45 33.311 179.727 34.6592 183.625 36.7578C184.662 37.3005 185.698 37.8432 186.766 38.4023C188.925 39.5525 191.081 40.7088 193.234 41.8711C194.789 42.6812 194.789 42.6812 196.375 43.5078C197.311 44.0094 198.247 44.511 199.211 45.0278C204.262 46.7885 208.521 44.9613 213.25 42.9375C217.801 41 217.801 41 220 41C220.262 39.738 220.523 38.476 220.793 37.1758C222.004 31.7452 223.597 26.4775 225.313 21.1875C225.596 20.26 225.879 19.3325 226.17 18.3769C226.606 17.036 226.606 17.036 227.051 15.6679C227.305 14.8664 227.56 14.0648 227.822 13.239C231.493 6.26427 236.884 6.41784 243.938 6.50388ZM205.75 111.625C194.252 126.766 191.629 143.438 193 162C194.937 176.01 202.222 187.171 212 197C212.592 197.626 213.183 198.253 213.793 198.898C224.822 209.66 240.9 214.856 256 215.375C273.862 214.761 289.672 207.901 302 195C302.948 194.082 302.948 194.082 303.914 193.145C315.781 180.886 319.519 164.705 319.42 148.197C319 132.363 312.56 117.818 301.574 106.348C293.438 98.9277 284.451 93.5433 274 90C273.301 89.7551 272.603 89.5101 271.883 89.2578C247.541 82.3435 221.735 93.0836 205.75 111.625Z" fill="white"/>
<path d="M466 404C477.859 413.787 484.915 426.801 487 442C488.267 458.597 483.961 473.922 473.25 486.75C461.996 498.709 447.624 504.805 431.375 505.375C415.698 505.085 402.103 500.068 390.625 489.188C386.224 484.526 382.87 479.722 380 474C379.611 473.245 379.221 472.489 378.82 471.711C372.334 457.556 373.102 441.751 378.125 427.313C384.237 412.623 394.466 403.344 408.473 396.445C427.612 388.603 449.366 392.219 466 404Z" fill="white"/>
<path d="M115 403C127.73 412.601 134.777 425.389 137.527 440.992C139.301 456.022 135.479 470.541 126.711 482.848C116.555 495.624 104.023 502.638 87.9999 505C72.4181 506.443 58.0541 502.169 45.3593 493.117C34.428 483.933 26.6327 470.287 24.9999 456C23.9024 439.889 27.1772 424.756 37.7912 412.246C57.4243 390.327 90.7576 385.419 115 403Z" fill="white"/>
<path d="M290 403C300.989 410.757 309.403 424.012 311.75 437.313C313.39 454.944 311.189 470.306 299.965 484.59C290.172 496.075 278.135 503.061 263 505C245.692 506.102 230.951 502.079 217.625 490.688C207.52 480.975 200.338 468.245 199.797 453.996C199.51 437.529 202.497 422.148 214.223 409.613C236.162 389.699 264.981 387.218 290 403Z" fill="white"/>
<path d="M248 308C253.28 308 258.56 308 264 308C264 316.91 264 325.82 264 335C266.789 334.987 266.789 334.987 269.634 334.973C287.158 334.892 304.682 334.832 322.206 334.793C331.216 334.772 340.225 334.744 349.234 334.698C357.089 334.658 364.943 334.633 372.798 334.624C376.955 334.618 381.112 334.606 385.269 334.577C389.187 334.55 393.104 334.542 397.022 334.548C398.455 334.546 399.888 334.539 401.321 334.523C412.881 334.405 420.712 336.164 429.215 344.16C437.07 352.257 439.282 361.059 439.187 372.188C439.126 374.436 439.064 376.684 439 379C433.72 379 428.44 379 423 379C422.897 377.02 422.794 375.04 422.687 373C422.123 365.984 421.553 359.898 415.937 355.062C411.889 352.22 410.086 351.871 405.179 351.842C403.939 351.832 402.699 351.822 401.422 351.812C400.041 351.806 398.66 351.8 397.279 351.795C395.83 351.785 394.382 351.775 392.933 351.765C388.993 351.738 385.053 351.717 381.114 351.697C376.999 351.675 372.884 351.647 368.77 351.621C360.975 351.571 353.18 351.526 345.385 351.483C336.512 351.433 327.639 351.378 318.766 351.323C300.511 351.209 282.255 351.103 264 351C264 359.91 264 368.82 264 378C258.72 378 253.44 378 248 378C248 369.09 248 360.18 248 351C228.954 351.04 209.909 351.097 190.863 351.184C182.02 351.224 173.177 351.256 164.333 351.271C156.624 351.284 148.915 351.311 141.206 351.355C137.125 351.377 133.045 351.393 128.964 351.392C125.12 351.391 121.276 351.409 117.433 351.441C116.025 351.45 114.617 351.451 113.209 351.446C102.885 351.359 102.885 351.359 93.9999 356C90.1597 361.12 89.8438 365.98 89.4374 372.25C89.293 374.477 89.1487 376.705 88.9999 379C83.7199 379 78.4399 379 72.9999 379C72.6629 365.743 72.5746 355.255 81.9999 345C88.7439 338.047 94.8905 334.888 104.657 334.639C107.331 334.631 110.003 334.638 112.678 334.659C114.157 334.66 115.636 334.66 117.115 334.658C121.11 334.657 125.105 334.675 129.1 334.696C133.283 334.715 137.466 334.716 141.648 334.72C149.56 334.729 157.472 334.754 165.383 334.784C174.394 334.818 183.405 334.834 192.416 334.849C210.944 334.88 229.472 334.934 248 335C248 326.09 248 317.18 248 308Z" fill="white"/>
</svg>
