<svg width="256" height="256" viewBox="0 0 96 96" fill="none" xmlns="http://www.w3.org/2000/svg">
<g clip-path="url(#clip0_2221_1913)">
<path d="M48.2307 54.9868C52.1702 54.9868 55.3638 51.7933 55.3638 47.8538C55.3638 43.9143 52.1702 40.7207 48.2307 40.7207C44.2912 40.7207 41.0977 43.9143 41.0977 47.8538C41.0977 51.7933 44.2912 54.9868 48.2307 54.9868Z" fill="#00D8FF"/>
<path fill-rule="evenodd" clip-rule="evenodd" d="M48.7555 32.8187C60.9174 32.9016 74.1864 33.7888 83.2947 41.9111C83.5623 42.15 83.8203 42.3985 84.072 42.655C86.2208 44.8452 87.3438 48.3815 85.6092 51.2918C82.0506 57.2668 74.0924 59.8728 66.3875 61.4768C54.8643 63.8758 42.8155 63.8949 31.2972 61.7827C24.6691 60.5657 17.8912 58.4328 13.181 53.971C11.3475 52.2348 9.78009 49.9505 10.0254 47.4082C10.4236 43.2953 14.3693 40.6559 17.6905 38.8686C26.9151 33.9051 38.1547 32.7948 48.7555 32.8187ZM47.873 34.6872C36.3658 34.7653 23.9108 35.4996 15.0256 42.8573C14.7149 43.1137 14.4155 43.3829 14.1272 43.6649C13.9408 43.8465 13.7608 44.036 13.5872 44.2304C12.0277 45.9826 11.4909 48.7973 12.9627 50.9015C14.4441 53.0185 16.6933 54.5461 19.0094 55.7917C27.6717 60.4494 37.9078 61.2761 47.8874 61.3112C57.9912 61.3478 68.4105 60.4271 77.3356 55.8124C80.891 53.9726 84.8924 51.271 84.7506 47.7921C84.62 44.5999 81.5074 42.6279 79.177 41.2198C78.5462 40.8391 77.8979 40.487 77.24 40.1557C68.3802 35.7162 57.9976 34.6649 47.873 34.6872Z" fill="#00D8FF"/>
<path fill-rule="evenodd" clip-rule="evenodd" d="M64.342 14.001C68.791 14.1141 71.0959 19.4631 71.4002 23.4135C71.4607 24.1988 71.483 24.9873 71.4734 25.7758C71.4639 26.6296 71.4177 27.4834 71.3428 28.334C70.4046 38.8663 65.5956 48.8969 59.9328 58.1597C54.3942 67.2202 47.6403 76.2552 38.4523 80.4541C35.4147 81.8432 31.8019 82.7002 29.1131 81.1502C25.4271 79.0269 25.0241 74.0602 25.0926 70.2929C25.1101 69.3675 25.1706 68.442 25.2662 67.5197C26.6823 53.8843 33.594 40.9674 42.2435 29.8393C47.2898 23.3466 53.2935 16.9064 60.7723 14.5744C61.9494 14.2064 62.8845 13.9834 64.342 14.001ZM64.1285 15.8679C58.9054 15.9507 54.2158 19.8215 50.0631 23.8436C39.1453 34.4157 31.0995 48.4764 27.8626 63.222C27.6126 64.3641 27.4023 65.5142 27.2478 66.6723C27.1283 67.5691 27.0407 68.4707 26.9945 69.3754C26.9579 70.0954 26.9451 70.817 26.9674 71.5386C26.9834 72.1025 27.02 72.6664 27.0821 73.2271C27.1283 73.6556 27.1904 74.0825 27.2685 74.5062C27.3274 74.82 27.3959 75.1322 27.4756 75.4428C27.5409 75.6945 27.6142 75.9446 27.697 76.1931C28.3485 78.1572 30.0274 80.0336 32.2814 80.0957C37.5396 80.2391 42.4904 76.405 46.7705 72.2379C54.2843 64.9248 59.8834 55.7353 64.2575 46.0759C67.7874 38.277 71.0163 29.7995 69.2131 21.2153C69.1446 20.8903 69.065 20.5685 68.9742 20.25C68.8993 19.9903 68.8149 19.7339 68.7225 19.4806C68.0216 17.5707 66.3729 15.8631 64.1285 15.8679Z" fill="#00D8FF"/>
<path fill-rule="evenodd" clip-rule="evenodd" d="M32.4744 14.0705C38.1515 14.1804 43.2505 18.0336 47.7775 22.3488C56.0384 30.2226 62.1313 40.2388 66.7539 50.7808C70.3348 58.9476 73.6289 68.1148 70.7011 76.7325C69.7788 79.4484 67.4452 81.9334 64.3343 81.9971C58.63 82.1118 53.3432 77.9638 48.7556 73.4989C37.2468 62.2943 28.7024 47.5025 25.7746 31.8155C25.5643 30.6941 25.3971 29.5631 25.2824 28.4274C25.1884 27.5003 25.1295 26.5685 25.1135 25.6366C25.1008 24.8847 25.1167 24.1329 25.1693 23.3842C25.2043 22.884 25.2553 22.3871 25.3238 21.8917C25.3891 21.4265 25.4719 20.963 25.5755 20.5042C25.644 20.2 25.7204 19.8989 25.808 19.5995C26.6666 16.6637 28.8999 14.0482 32.4744 14.0705ZM32.2594 15.9389C28.9349 16.0122 27.4137 19.9324 27.1079 22.6833C27.0457 23.2472 27.0075 23.8159 26.99 24.3846C26.9677 25.1109 26.9772 25.8389 27.0139 26.5653C27.5364 37.0769 32.2355 47.2397 37.9062 56.5455C43.2457 65.3065 49.6938 74.0325 58.5631 78.5182C61.1245 79.8132 64.2371 80.8311 66.4497 79.6077C69.2245 78.0721 69.5654 74.4132 69.7135 71.6862C69.7534 70.9439 69.7581 70.1984 69.7342 69.4545C69.7056 68.521 69.6323 67.5892 69.5224 66.6621C68.4997 58.0014 64.664 49.8059 60.258 42.0611C54.7752 32.4272 48.0579 22.8251 38.5514 17.809C36.5825 16.7704 34.4512 15.9214 32.2594 15.9389Z" fill="#00D8FF"/>
</g>
<defs>
<clipPath id="clip0_2221_1913">
<rect width="96" height="96" fill="white"/>
</clipPath>
</defs>
</svg>
