<svg width="256" height="156" viewBox="0 0 96 96" fill="none" xmlns="http://www.w3.org/2000/svg">
<path d="M61.1168 61.4907C63.6262 61.217 65.53 58.9383 65.4434 56.2035C65.357 53.4692 63.1935 51.2815 60.5975 51.2815H60.4245C57.7417 51.3726 55.6652 53.7426 55.7518 56.5683C55.8384 57.9355 56.3574 59.1204 57.1363 59.9408C54.1941 66.0482 49.6943 70.5146 42.9449 74.2519C38.3585 76.8041 33.5994 77.7158 28.8402 77.0778C24.9461 76.5309 21.9175 74.708 20.0135 71.6995C17.2446 67.2331 16.9851 62.4019 19.3215 57.571C20.9657 54.1071 23.5614 51.5547 25.2057 50.2785C24.8596 49.0936 24.3402 47.0883 24.0807 45.63C11.5334 55.201 12.8315 68.1448 16.639 74.2519C19.4944 78.8096 25.2922 81.6355 31.6957 81.6355C33.4262 81.6355 35.1568 81.4528 36.8877 80.9975C47.964 78.7185 56.3577 71.7908 61.1168 61.4907ZM76.3467 50.1877C69.7702 42.075 60.0784 37.6087 49.0021 37.6087H47.6178C46.839 35.9679 45.1948 34.8738 43.3776 34.8738H43.2044C40.522 34.9652 38.4455 37.335 38.5319 40.1608C38.6185 42.8954 40.7816 45.0831 43.3776 45.0831H43.5505C45.4543 44.992 47.0986 43.7158 47.7908 41.9837H49.3482C55.925 41.9837 62.1551 43.989 67.7801 47.9087C72.1065 50.9167 75.2218 54.8364 76.9524 59.5763C78.4234 63.4047 78.3369 67.142 76.7792 70.3324C74.3564 75.1633 70.2895 77.8068 64.9243 77.8068C61.4629 77.8068 58.1748 76.713 56.444 75.8926C55.4922 76.8041 53.7614 78.2624 52.5499 79.1744C56.2711 80.9972 60.0784 82 63.7128 82C72.0199 82 78.1639 77.1686 80.5004 72.3377C83.0096 67.0507 82.8364 57.9355 76.3467 50.1877ZM32.3879 63.0399C32.4745 65.7745 34.6378 67.9619 37.2338 67.9619H37.407C40.0893 67.8711 42.1661 65.501 42.0795 62.6754C41.9931 59.9406 39.8296 57.7532 37.2338 57.7532H37.0608C36.8877 57.7532 36.6279 57.7532 36.4552 57.844C32.9072 51.6458 31.4362 44.9007 31.9554 37.6084C32.3013 32.1392 34.0321 27.3991 37.0608 23.4795C39.57 20.1068 44.416 18.4661 47.7044 18.3752C56.8767 18.1927 60.7704 30.2248 61.0302 35.056C62.1551 35.3294 64.0589 35.9677 65.357 36.4235C64.3184 21.6569 55.6652 14 47.3583 14C39.57 14 32.3879 19.925 29.5322 28.6756C25.5518 40.343 28.1477 51.5547 32.9935 60.3967C32.5611 61.0346 32.3013 62.0372 32.3879 63.0399Z" fill="#764ABC"/>
</svg>
