<svg width="256" height="256" viewBox="0 0 80 60" fill="none" xmlns="http://www.w3.org/2000/svg">
<path d="M40.0076 0C29.3365 0 22.6852 6.7082 20.0386 20C24.0433 13.3107 28.7345 10.847 34.0278 12.541C37.0524 13.4842 39.2514 16.2271 41.659 19.336C45.5942 24.3313 50.1312 30.0962 60.0461 30.0962C70.7021 30.0962 77.3534 23.388 80 10.0962C75.9953 16.7855 71.304 19.2492 66.0108 17.5552C62.9861 16.612 60.8023 13.8691 58.3795 10.7602C54.4444 5.7649 49.9074 0 40.0076 0ZM19.969 29.9038C9.29789 29.9038 2.6466 36.5931 0 49.9C4.00469 43.1956 8.69598 40.7508 13.9892 42.4448C17.0139 43.388 19.2128 46.1309 21.6205 49.2398C25.5556 54.2351 30.0926 60 40.0076 60C50.6635 60 57.3148 53.2918 59.9614 40C55.9567 46.6893 51.2655 49.153 45.9723 47.4401C42.9476 46.4969 40.7637 43.7729 38.341 40.664C34.4754 35.6499 29.9384 29.9038 19.969 29.9038Z" fill="#38BDF8"/>
</svg>
